<svg xmlns="http://www.w3.org/2000/svg" xmlns:xlink="http://www.w3.org/1999/xlink" viewBox="0 0 188 188"><defs><style>.cls-1{fill:#fff;fill-rule:evenodd;}.cls-2{fill:none;}</style><symbol id="alteryx_icon" data-name="alteryx_icon" viewBox="0 0 41.74 46.65"><path class="cls-1" d="M41,39.63a22.81,22.81,0,0,1,.76,3.43c.06,1.1-.67,1.72-1.71,2.22a15.31,15.31,0,0,1-4.85,1.31,8.86,8.86,0,0,1-1.05.06,12.64,12.64,0,0,1-3.47-.41A6.73,6.73,0,0,1,26,42.31l-.19-.43-.36.29a18.81,18.81,0,0,1-12.28,4.48h0c-4,0-7.26-1.06-9.51-3C1.25,41.47,0,38.18,0,34.07c-.07-9,5.09-13.52,16.25-13.88L24.59,20h.35V8.2S23.43,7,19.52,6.38a31.28,31.28,0,0,0-5.2-.26,29.21,29.21,0,0,0-4.89.6,14.19,14.19,0,0,1-2.85.37C5.8,6.93,5.38,6.63,5,5.39a14.89,14.89,0,0,1-.63-2.33c0-1.06,1.15-1.6,1.49-1.71a41.15,41.15,0,0,1,6-1.13,33.36,33.36,0,0,1,4-.22,37,37,0,0,1,8.71,1l.17.05A28.58,28.58,0,0,1,31.33,3.4c.08.05.14.11.21.16l.19.13a2.67,2.67,0,0,1,.95,1.82V35.82c.13,2.21.47,3,2.42,2.88a16.37,16.37,0,0,0,3.09-.49,4,4,0,0,1,.79-.1A2,2,0,0,1,41,39.63ZM25.32,36.87V25.41h-.38l-.38,0-8.59.4c-6.23.4-8.08,2.13-8.19,7.73.1,4.86,1.92,6.65,6.9,6.76h0A19.43,19.43,0,0,0,25,37.08l.16-.09Z"/></symbol></defs><g id="Layer_2" data-name="Layer 2"><g id="design"><g id="design_bg"><rect class="cls-2" width="188" height="188"/></g><use width="41.74" height="46.65" transform="translate(47 41.47) scale(2.25)" xlink:href="#alteryx_icon"/></g></g></svg>