<svg xmlns="http://www.w3.org/2000/svg" viewBox="0 0 188 188"><defs><style>.cls-1{fill:none;}.cls-2{fill:#00263e;fill-rule:evenodd;}</style></defs><g id="Layer_2" data-name="Layer 2"><g id="design"><g id="design_bg"><rect class="cls-1" width="188" height="188"/></g><path class="cls-2" d="M139.27,130.72a51.21,51.21,0,0,1,1.72,7.72c.13,2.5-1.52,3.88-3.86,5a34.67,34.67,0,0,1-10.92,3,22.17,22.17,0,0,1-2.36.12,28.51,28.51,0,0,1-7.82-.92,15.1,15.1,0,0,1-10.42-8.85l-.42-1-.83.64c-8.59,6.9-17.4,10.09-27.65,10.09h0c-8.92,0-16.34-2.37-21.4-6.87C49.82,134.87,47,127.45,47,118.21,46.84,97.85,58.46,87.75,83.6,87l18.79-.48.77,0V59.94S99.77,57.2,91,55.83a69.49,69.49,0,0,0-11.72-.58,67.68,67.68,0,0,0-11,1.36c-2,.36-5,1-6.43.84-1.74-.36-2.7-1-3.61-3.84a33,33,0,0,1-1.43-5.24c.08-2.4,2.6-3.6,3.37-3.86A93.87,93.87,0,0,1,73.72,42a77.66,77.66,0,0,1,8.93-.49,83.33,83.33,0,0,1,19.62,2.3l.38.11c5.17,1.32,11.25,3.08,14.91,5.26a1.86,1.86,0,0,1,.46.35l.44.28a6,6,0,0,1,2.15,4.11v68.26c.29,5,1.06,6.72,5.43,6.5a35.8,35.8,0,0,0,7-1.12,10,10,0,0,1,1.77-.22A4.57,4.57,0,0,1,139.27,130.72ZM104,124.52V98.7l-.84,0-.87,0L83,99.68c-14,.89-18.19,4.78-18.43,17.4.22,10.94,4.31,15,15.54,15.22h0A43.82,43.82,0,0,0,103.33,125l.35-.21Z"/></g></g></svg>